<?xml version="1.0" encoding="UTF-8"?>
<svg xmlns="http://www.w3.org/2000/svg" viewBox="0 0 595 842" width="595" height="842">
  <defs>
    <radialGradient id="paperGrad" cx="50%" cy="50%" r="70%">
      <stop offset="0%" stop-color="#ffffff"/>
      <stop offset="70%" stop-color="#fffef9"/>
      <stop offset="100%" stop-color="#fdfbf5"/>
    </radialGradient>
    <linearGradient id="scallopGrad" x1="0%" y1="0%" x2="100%" y2="100%">
      <stop offset="0%" stop-color="#faeedf"/>
      <stop offset="50%" stop-color="#f3d7ba"/>
      <stop offset="100%" stop-color="#ebd0b2"/>
    </linearGradient>
  </defs>

  <!-- Background base -->
  <rect width="595" height="842" fill="#ffffff"/>

  <!-- Outer scalloped lace security perimeter -->
  <path d="M 12,12  Q 21,6 30,12 Q 39,6 48,12 Q 57,6 66,12 Q 75,6 84,12 Q 93,6 102,12 Q 111,6 120,12 Q 129,6 138,12 Q 147,6 156,12 Q 165,6 174,12 Q 183,6 192,12 Q 201,6 210,12 Q 219,6 228,12 Q 237,6 246,12 Q 255,6 264,12 Q 273,6 282,12 Q 291,6 300,12 Q 309,6 318,12 Q 327,6 336,12 Q 345,6 354,12 Q 363,6 372,12 Q 381,6 390,12 Q 399,6 408,12 Q 417,6 426,12 Q 435,6 444,12 Q 453,6 462,12 Q 471,6 480,12 Q 489,6 498,12 Q 507,6 516,12 Q 525,6 534,12 Q 543,6 552,12 Q 561,6 570,12 Q 576.5,6 583,12  Q 589,21 583,30 Q 589,39 583,48 Q 589,57 583,66 Q 589,75 583,84 Q 589,93 583,102 Q 589,111 583,120 Q 589,129 583,138 Q 589,147 583,156 Q 589,165 583,174 Q 589,183 583,192 Q 589,201 583,210 Q 589,219 583,228 Q 589,237 583,246 Q 589,255 583,264 Q 589,273 583,282 Q 589,291 583,300 Q 589,309 583,318 Q 589,327 583,336 Q 589,345 583,354 Q 589,363 583,372 Q 589,381 583,390 Q 589,399 583,408 Q 589,417 583,426 Q 589,435 583,444 Q 589,453 583,462 Q 589,471 583,480 Q 589,489 583,498 Q 589,507 583,516 Q 589,525 583,534 Q 589,543 583,552 Q 589,561 583,570 Q 589,579 583,588 Q 589,597 583,606 Q 589,615 583,624 Q 589,633 583,642 Q 589,651 583,660 Q 589,669 583,678 Q 589,687 583,696 Q 589,705 583,714 Q 589,723 583,732 Q 589,741 583,750 Q 589,759 583,768 Q 589,777 583,786 Q 589,795 583,804 Q 589,813 583,822 Q 589,826 583,830  Q 574,836 565,830 Q 556,836 547,830 Q 538,836 529,830 Q 520,836 511,830 Q 502,836 493,830 Q 484,836 475,830 Q 466,836 457,830 Q 448,836 439,830 Q 430,836 421,830 Q 412,836 403,830 Q 394,836 385,830 Q 376,836 367,830 Q 358,836 349,830 Q 340,836 331,830 Q 322,836 313,830 Q 304,836 295,830 Q 286,836 277,830 Q 268,836 259,830 Q 250,836 241,830 Q 232,836 223,830 Q 214,836 205,830 Q 196,836 187,830 Q 178,836 169,830 Q 160,836 151,830 Q 142,836 133,830 Q 124,836 115,830 Q 106,836 97,830 Q 88,836 79,830 Q 70,836 61,830 Q 52,836 43,830 Q 34,836 25,830 Q 18.5,836 12,830  Q 6,821 12,812 Q 6,803 12,794 Q 6,785 12,776 Q 6,767 12,758 Q 6,749 12,740 Q 6,731 12,722 Q 6,713 12,704 Q 6,695 12,686 Q 6,677 12,668 Q 6,659 12,650 Q 6,641 12,632 Q 6,623 12,614 Q 6,605 12,596 Q 6,587 12,578 Q 6,569 12,560 Q 6,551 12,542 Q 6,533 12,524 Q 6,515 12,506 Q 6,497 12,488 Q 6,479 12,470 Q 6,461 12,452 Q 6,443 12,434 Q 6,425 12,416 Q 6,407 12,398 Q 6,389 12,380 Q 6,371 12,362 Q 6,353 12,344 Q 6,335 12,326 Q 6,317 12,308 Q 6,299 12,290 Q 6,281 12,272 Q 6,263 12,254 Q 6,245 12,236 Q 6,227 12,218 Q 6,209 12,200 Q 6,191 12,182 Q 6,173 12,164 Q 6,155 12,146 Q 6,137 12,128 Q 6,119 12,110 Q 6,101 12,92 Q 6,83 12,74 Q 6,65 12,56 Q 6,47 12,38 Q 6,29 12,20 Q 6,16 12,12 Z" fill="url(#scallopGrad)" stroke="#d97706" stroke-width="0.8" opacity="0.85"/>

  <!-- Inner scalloped line for security watermark effect -->
  <path d="M 12,12  Q 21,6 30,12 Q 39,6 48,12 Q 57,6 66,12 Q 75,6 84,12 Q 93,6 102,12 Q 111,6 120,12 Q 129,6 138,12 Q 147,6 156,12 Q 165,6 174,12 Q 183,6 192,12 Q 201,6 210,12 Q 219,6 228,12 Q 237,6 246,12 Q 255,6 264,12 Q 273,6 282,12 Q 291,6 300,12 Q 309,6 318,12 Q 327,6 336,12 Q 345,6 354,12 Q 363,6 372,12 Q 381,6 390,12 Q 399,6 408,12 Q 417,6 426,12 Q 435,6 444,12 Q 453,6 462,12 Q 471,6 480,12 Q 489,6 498,12 Q 507,6 516,12 Q 525,6 534,12 Q 543,6 552,12 Q 561,6 570,12 Q 576.5,6 583,12  Q 589,21 583,30 Q 589,39 583,48 Q 589,57 583,66 Q 589,75 583,84 Q 589,93 583,102 Q 589,111 583,120 Q 589,129 583,138 Q 589,147 583,156 Q 589,165 583,174 Q 589,183 583,192 Q 589,201 583,210 Q 589,219 583,228 Q 589,237 583,246 Q 589,255 583,264 Q 589,273 583,282 Q 589,291 583,300 Q 589,309 583,318 Q 589,327 583,336 Q 589,345 583,354 Q 589,363 583,372 Q 589,381 583,390 Q 589,399 583,408 Q 589,417 583,426 Q 589,435 583,444 Q 589,453 583,462 Q 589,471 583,480 Q 589,489 583,498 Q 589,507 583,516 Q 589,525 583,534 Q 589,543 583,552 Q 589,561 583,570 Q 589,579 583,588 Q 589,597 583,606 Q 589,615 583,624 Q 589,633 583,642 Q 589,651 583,660 Q 589,669 583,678 Q 589,687 583,696 Q 589,705 583,714 Q 589,723 583,732 Q 589,741 583,750 Q 589,759 583,768 Q 589,777 583,786 Q 589,795 583,804 Q 589,813 583,822 Q 589,826 583,830  Q 574,836 565,830 Q 556,836 547,830 Q 538,836 529,830 Q 520,836 511,830 Q 502,836 493,830 Q 484,836 475,830 Q 466,836 457,830 Q 448,836 439,830 Q 430,836 421,830 Q 412,836 403,830 Q 394,836 385,830 Q 376,836 367,830 Q 358,836 349,830 Q 340,836 331,830 Q 322,836 313,830 Q 304,836 295,830 Q 286,836 277,830 Q 268,836 259,830 Q 250,836 241,830 Q 232,836 223,830 Q 214,836 205,830 Q 196,836 187,830 Q 178,836 169,830 Q 160,836 151,830 Q 142,836 133,830 Q 124,836 115,830 Q 106,836 97,830 Q 88,836 79,830 Q 70,836 61,830 Q 52,836 43,830 Q 34,836 25,830 Q 18.5,836 12,830  Q 6,821 12,812 Q 6,803 12,794 Q 6,785 12,776 Q 6,767 12,758 Q 6,749 12,740 Q 6,731 12,722 Q 6,713 12,704 Q 6,695 12,686 Q 6,677 12,668 Q 6,659 12,650 Q 6,641 12,632 Q 6,623 12,614 Q 6,605 12,596 Q 6,587 12,578 Q 6,569 12,560 Q 6,551 12,542 Q 6,533 12,524 Q 6,515 12,506 Q 6,497 12,488 Q 6,479 12,470 Q 6,461 12,452 Q 6,443 12,434 Q 6,425 12,416 Q 6,407 12,398 Q 6,389 12,380 Q 6,371 12,362 Q 6,353 12,344 Q 6,335 12,326 Q 6,317 12,308 Q 6,299 12,290 Q 6,281 12,272 Q 6,263 12,254 Q 6,245 12,236 Q 6,227 12,218 Q 6,209 12,200 Q 6,191 12,182 Q 6,173 12,164 Q 6,155 12,146 Q 6,137 12,128 Q 6,119 12,110 Q 6,101 12,92 Q 6,83 12,74 Q 6,65 12,56 Q 6,47 12,38 Q 6,29 12,20 Q 6,16 12,12 Z" fill="url(#paperGrad)" stroke="#b45309" stroke-width="0.5" transform="scale(0.978) translate(6.545, 9.262)"/>

  <!-- Crisp gold inner rectangular framing line -->
  <rect x="24" y="24" width="547" height="794" fill="none" stroke="#d97706" stroke-width="1.2" opacity="0.7"/>

  <!-- Thin inner black border line -->
  <rect x="27" y="27" width="541" height="788" fill="none" stroke="#1f2937" stroke-width="0.7"/>

  <!-- Subtle corner rosettes/motifs -->
  <g stroke="#b45309" stroke-width="0.8" fill="none">
    <!-- Top-Left Corner -->
    <circle cx="27" cy="27" r="4"/>
    <line x1="23" y1="27" x2="31" y2="27"/>
    <line x1="27" y1="23" x2="27" y2="31"/>

    <!-- Top-Right Corner -->
    <circle cx="568" cy="27" r="4"/>
    <line x1="564" y1="27" x2="572" y2="27"/>
    <line x1="568" y1="23" x2="568" y2="31"/>

    <!-- Bottom-Left Corner -->
    <circle cx="27" cy="815" r="4"/>
    <line x1="23" y1="815" x2="31" y2="815"/>
    <line x1="27" y1="811" x2="27" y2="819"/>

    <!-- Bottom-Right Corner -->
    <circle cx="568" cy="815" r="4"/>
    <line x1="564" y1="815" x2="572" y2="815"/>
    <line x1="568" y1="811" x2="568" y2="819"/>
  </g>
</svg>